name C:\Users\u0101727\Documents\MyRepositories\upper-imu-dc\Results\main_tracking\Case_68\kinematics.mot
datacolumns 10
datarows 42
range 3.50000000 3.91000000
endheader 
time	clav_prot	clav_elev	scapula_abduction	scapula_elevation	scapula_upward_rot	scapula_winging	plane_elv	shoulder_elv	axial_rot	
          3.50000000	        -34.59775190	          6.46590786	         -0.90317359	         -4.05246170	         60.23992150	         -8.31569079	         31.35105918	         70.34076626	          6.58691037	
          3.51000000	        -34.60225140	          6.43713017	         -0.88074845	         -4.07303667	         60.26679001	         -8.30854661	         31.35385567	         70.34171519	          6.60879477	
          3.52000000	        -34.60820903	          6.40884048	         -0.85914833	         -4.09349978	         60.29584788	         -8.30106178	         31.35398679	         70.34234257	          6.63260570	
          3.53000000	        -34.62349494	          6.38316200	         -0.85234759	         -4.11325190	         60.32797326	         -8.29412297	         31.35356259	         70.34070223	          6.65679846	
          3.54000000	        -34.65729998	          6.36235887	         -0.87706765	         -4.13180060	         60.36286277	         -8.28810055	         31.35356027	         70.33665050	          6.68019047	
          3.55000000	        -34.68925830	          6.34321242	         -0.89685924	         -4.14922577	         60.39987010	         -8.28278892	         31.35356672	         70.33102215	          6.70308154	
          3.56000000	        -34.70956214	          6.32326178	         -0.89478025	         -4.16584822	         60.43845117	         -8.27786931	         31.35303245	         70.32463920	          6.72584301	
          3.57000000	        -34.72203139	          6.30298119	         -0.87774276	         -4.18173603	         60.47837469	         -8.27342704	         31.35280831	         70.31740104	          6.74831043	
          3.58000000	        -34.73243267	          6.28288922	         -0.85603763	         -4.19719841	         60.51956524	         -8.26942260	         31.35349734	         70.30916696	          6.77028344	
          3.59000000	        -34.74169517	          6.26221731	         -0.83117446	         -4.21290312	         60.56192901	         -8.26563621	         31.35534382	         70.30002901	          6.79165822	
          3.60000000	        -34.74825916	          6.23997376	         -0.79999797	         -4.22931018	         60.60559808	         -8.26197332	         31.35855994	         70.28971025	          6.81229751	
          3.61000000	        -34.75433381	          6.21625149	         -0.76619034	         -4.24661030	         60.65084794	         -8.25845947	         31.36330810	         70.27764061	          6.83199864	
          3.62000000	        -34.76301440	          6.19161075	         -0.73515654	         -4.26478840	         60.69790952	         -8.25519050	         31.36976093	         70.26317173	          6.85063405	
          3.63000000	        -34.77018542	          6.16574029	         -0.69960936	         -4.28352292	         60.74670057	         -8.25236034	         31.37835720	         70.24577827	          6.86814400	
          3.64000000	        -34.77266686	          6.13851452	         -0.65409725	         -4.30249301	         60.79700558	         -8.25011032	         31.38942291	         70.22513523	          6.88334328	
          3.65000000	        -34.76590586	          6.10927011	         -0.59049098	         -4.32162017	         60.84870552	         -8.24840911	         31.40284750	         70.20093613	          6.89601583	
          3.66000000	        -34.74066678	          6.07662622	         -0.49220111	         -4.34092301	         60.90172349	         -8.24709761	         31.41801347	         70.17291832	          6.90677204	
          3.67000000	        -34.70236794	          6.04169317	         -0.37019020	         -4.36051736	         60.95498247	         -8.24594066	         31.43517232	         70.14174949	          6.91588600	
          3.68000000	        -34.68364144	          6.00914606	         -0.28499567	         -4.38073209	         61.00649901	         -8.24463819	         31.45561448	         70.10888469	          6.92386843	
          3.69000000	        -34.68157744	          5.97806593	         -0.23283067	         -4.40174548	         61.05406232	         -8.24306609	         31.48131914	         70.07577891	          6.93065815	
          3.70000000	        -34.69111278	          5.94815523	         -0.20638647	         -4.42311639	         61.09567378	         -8.24152686	         31.51481990	         70.04324786	          6.93575082	
          3.71000000	        -34.71756881	          5.92219568	         -0.21785550	         -4.44349293	         61.12884770	         -8.24057815	         31.55842730	         70.01242083	          6.93857792	
          3.72000000	        -34.79179462	          5.90649655	         -0.32530240	         -4.46195335	         61.15081532	         -8.23996973	         31.61151929	         69.98591816	          6.93735958	
          3.73000000	        -34.98533676	          5.91716923	         -0.66323605	         -4.47721211	         61.15666873	         -8.23852486	         31.67060186	         69.96947330	          6.93552615	
          3.74000000	        -34.99157095	          5.90342460	         -0.68405246	         -4.48762306	         61.14098449	         -8.23493136	         31.73091129	         69.97004036	          6.93395965	
          3.75000000	        -34.86118657	          5.87379387	         -0.47876522	         -4.49176088	         61.10267645	         -8.22937674	         31.79096182	         69.98887577	          6.92943190	
          3.76000000	        -34.79358541	          5.86702111	         -0.40459428	         -4.48898883	         61.04759387	         -8.22402313	         31.85395400	         70.01779981	          6.92122328	
          3.77000000	        -34.74963496	          5.87381166	         -0.38632765	         -4.47971716	         60.97982335	         -8.21958941	         31.92047376	         70.05225187	          6.91050071	
          3.78000000	        -34.72516764	          5.89442987	         -0.41365141	         -4.46303134	         60.90264873	         -8.21744201	         31.99266171	         70.08781224	          6.89739402	
          3.79000000	        -34.70211798	          5.92507723	         -0.45236644	         -4.43958167	         60.81829835	         -8.21786804	         32.07199453	         70.12233365	          6.88032598	
          3.80000000	        -34.67539038	          5.96262004	         -0.49205245	         -4.41087743	         60.72740900	         -8.21986302	         32.15692494	         70.15674238	          6.86072333	
          3.81000000	        -34.64840851	          6.00527069	         -0.53568022	         -4.37853657	         60.63297301	         -8.22313914	         32.24712259	         70.18879329	          6.83825258	
          3.82000000	        -34.62185898	          6.05195565	         -0.58272424	         -4.34335755	         60.53673076	         -8.22760779	         32.34271266	         70.21721560	          6.81352605	
          3.83000000	        -34.60000352	          6.10185498	         -0.63885305	         -4.30633808	         60.44049710	         -8.23336445	         32.44518327	         70.24025050	          6.78754177	
          3.84000000	        -34.58250134	          6.15314327	         -0.70235805	         -4.26870624	         60.34503976	         -8.23988929	         32.55440805	         70.25804691	          6.75991591	
          3.85000000	        -34.57123554	          6.20413608	         -0.77541997	         -4.23184927	         60.25115953	         -8.24647397	         32.66961404	         70.27091510	          6.73089986	
          3.86000000	        -34.56839757	          6.25380052	         -0.86083436	         -4.19677802	         60.15984115	         -8.25238277	         32.78878234	         70.27914152	          6.70068112	
          3.87000000	        -34.57964393	          6.30251866	         -0.96781422	         -4.16393965	         60.07206062	         -8.25698305	         32.90912129	         70.28299902	          6.66940735	
          3.88000000	        -34.60328338	          6.35056059	         -1.09237539	         -4.13320282	         59.98920858	         -8.25998469	         33.02776163	         70.28200197	          6.63697514	
          3.89000000	        -34.61173973	          6.39316550	         -1.18463406	         -4.10471197	         59.91253145	         -8.26165154	         33.14532990	         70.27467010	          6.60544275	
          3.90000000	        -34.63129089	          6.43479165	         -1.29157551	         -4.07861375	         59.84060567	         -8.26209568	         33.26485949	         70.26192370	          6.58018263	
          3.91000000	        -34.61286777	          6.46597712	         -1.32427227	         -4.05488841	         59.77398066	         -8.26082925	         33.38318703	         70.24469007	          6.55406304	
